<svg xmlns="http://www.w3.org/2000/svg" xmlns:xlink="http://www.w3.org/1999/xlink" width="20" height="22" viewBox="0 0 20 22">
    <defs>
        <path id="a" d="M2.58 14.51L-.76 8.643A1.22 1.22 0 0 1-.75 7.42l3.362-5.694c.22-.372.619-.6 1.05-.6h6.597c.427 0 .823.224 1.044.59l3.43 5.69c.232.384.234.864.006 1.25l-3.473 5.872a1.22 1.22 0 0 1-1.05.598H3.64a1.22 1.22 0 0 1-1.06-.616z"/>
        <linearGradient id="d" x1="100%" x2="0%" y1="79.63%" y2="33.032%">
            <stop offset="0%" stop-color="#FFF0A4"/>
            <stop offset="100%" stop-color="#FFDD6A"/>
        </linearGradient>
        <path id="c" d="M3.986 12.202L2.248 8.524a1.22 1.22 0 0 1 .002-1.047l1.76-3.683a1.22 1.22 0 0 1 1.1-.694h3.945c.484 0 .922.286 1.117.73l1.612 3.678c.138.313.137.67-.002.983l-1.633 3.684a1.22 1.22 0 0 1-1.114.725H5.089c-.472 0-.901-.272-1.103-.698z"/>
    </defs>
    <g fill="none" fill-rule="evenodd" transform="translate(3 3)">
        <mask id="b" fill="#fff">
            <use xlink:href="#a"/>
        </mask>
        <path stroke="#180F28" stroke-width="3" d="M1.277 15.252l-3.34-5.867a2.72 2.72 0 0 1 .021-2.727L1.32.963A2.72 2.72 0 0 1 3.662-.374h6.597A2.72 2.72 0 0 1 12.587.941l3.431 5.69a2.72 2.72 0 0 1 .012 2.788l-3.473 5.872a2.72 2.72 0 0 1-2.34 1.335H3.64a2.72 2.72 0 0 1-2.363-1.374z"/>
        <path fill="#FFECA9" d="M7.064-.402v3.325L12.08 5.55l3.113-1.926z" mask="url(#b)"/>
        <path fill="#FFD95A" d="M-.77-.385v3.301l5.079 2.607L7.064 3.74z" mask="url(#b)" opacity=".5" transform="matrix(-1 0 0 1 6.294 0)"/>
        <path fill="#D89300" d="M-.642 10.789v3.368l5.109 2.926 2.597-1.596z" mask="url(#b)" transform="rotate(180 3.211 13.936)"/>
        <path fill="#EFB600" d="M7.064 10.789v3.368l4.904 2.926 2.803-1.419z" mask="url(#b)" transform="matrix(1 0 0 -1 0 27.872)"/>
        <path fill="#FECB20" d="M14.659 3.807l-2.586 1.716-.128 5.266 2.538 1.436z" mask="url(#b)"/>
        <use fill="url(#d)" transform="rotate(90 7 8)" xlink:href="#c"/>
    </g>
</svg>
