<svg xmlns="http://www.w3.org/2000/svg" xmlns:xlink="http://www.w3.org/1999/xlink" width="117" height="134" viewBox="0 0 117 134">
    <defs>
        <path id="b" d="M64.803 2.503l46.787 27.61a11 11 0 0 1 5.41 9.473v54.17a11 11 0 0 1-5.322 9.42l-46.742 28.172a11 11 0 0 1-11.276.048L5.403 102.87A11 11 0 0 1 0 93.4v-53.99a11 11 0 0 1 5.56-9.561L53.772 2.416a11 11 0 0 1 11.03.087zm-4.726 11.725a2.498 2.498 0 0 0-2.502-.008L12.253 40.265A2.498 2.498 0 0 0 11 42.431v49.122c0 .88.463 1.694 1.218 2.145l45.322 27.033c.793.473 1.782.47 2.572-.007L104.795 93.7A2.498 2.498 0 0 0 106 91.563V42.42c0-.889-.472-1.71-1.24-2.158z"/>
        <filter id="a" width="100.9%" height="101.5%" x="-.4%" y="-.4%" filterUnits="objectBoundingBox">
            <feOffset dy="1" in="SourceAlpha" result="shadowOffsetOuter1"/>
            <feComposite in="shadowOffsetOuter1" in2="SourceAlpha" operator="out" result="shadowOffsetOuter1"/>
            <feColorMatrix in="shadowOffsetOuter1" values="0 0 0 0 1 0 0 0 0 1 0 0 0 0 1 0 0 0 0.15 0"/>
        </filter>
        <path id="c" d="M63.996 6.928l44.338 26.178A9.492 9.492 0 0 1 113 41.28v51.36a9.492 9.492 0 0 1-4.59 8.128L64.11 127.48a9.492 9.492 0 0 1-9.733.042L8.66 100.484A9.492 9.492 0 0 1 4 92.314V41.108c0-3.412 1.83-6.561 4.796-8.25L54.474 6.854a9.492 9.492 0 0 1 9.522.075zm-3.932 8.791a2.498 2.498 0 0 0-2.49-.007L13.26 41.003a2.498 2.498 0 0 0-1.26 2.17V90.84c0 .883.466 1.7 1.225 2.15l44.314 26.25c.79.468 1.773.465 2.56-.007l43.69-26.241A2.498 2.498 0 0 0 105 90.85V43.163c0-.892-.475-1.716-1.247-2.162z"/>
        <path id="f" d="M23.794 117.27L-2.212 71.59a9.492 9.492 0 0 1 .075-9.521L24.041 17.73a9.492 9.492 0 0 1 8.174-4.666h52.311a9.492 9.492 0 0 1 8.166 4.653l26.358 44.478a9.492 9.492 0 0 1-.027 9.722L91.7 117.457a9.492 9.492 0 0 1-8.14 4.608H32.044a9.492 9.492 0 0 1-8.25-4.796z"/>
        <filter id="e" width="107.1%" height="111%" x="-3.6%" y="-5.5%" filterUnits="objectBoundingBox">
            <feGaussianBlur in="SourceAlpha" result="shadowBlurInner1" stdDeviation="3.5"/>
            <feOffset dx="-5" in="shadowBlurInner1" result="shadowOffsetInner1"/>
            <feComposite in="shadowOffsetInner1" in2="SourceAlpha" k2="-1" k3="1" operator="arithmetic" result="shadowInnerInner1"/>
            <feColorMatrix in="shadowInnerInner1" result="shadowMatrixInner1" values="0 0 0 0 0.642436594 0 0 0 0 0.268602055 0 0 0 0 0.120175306 0 0 0 0.603638549 0"/>
            <feGaussianBlur in="SourceAlpha" result="shadowBlurInner2" stdDeviation="2.5"/>
            <feOffset dx="5" in="shadowBlurInner2" result="shadowOffsetInner2"/>
            <feComposite in="shadowOffsetInner2" in2="SourceAlpha" k2="-1" k3="1" operator="arithmetic" result="shadowInnerInner2"/>
            <feColorMatrix in="shadowInnerInner2" result="shadowMatrixInner2" values="0 0 0 0 1 0 0 0 0 1 0 0 0 0 1 0 0 0 0.401633523 0"/>
            <feMerge>
                <feMergeNode in="shadowMatrixInner1"/>
                <feMergeNode in="shadowMatrixInner2"/>
            </feMerge>
        </filter>
    </defs>
    <g fill="none" fill-rule="evenodd">
        <g fill="#000">
            <use filter="url(#a)" xlink:href="#b"/>
            <use fill-opacity=".4" xlink:href="#b"/>
        </g>
        <mask id="d" fill="#fff">
            <use xlink:href="#c"/>
        </mask>
        <use fill="#FFCC21" xlink:href="#c"/>
        <path fill="#FFD95A" d="M-2 1v25.706L37.545 47 59 33.118z" mask="url(#d)" transform="matrix(-1 0 0 1 57 0)"/>
        <path fill="#D89A00" d="M-1 88v26.225L38.775 137 59 124.577z" mask="url(#d)" transform="rotate(180 29 112.5)"/>
        <path fill="#EFB600" d="M59 88v26.225L97.182 137 119 125.958z" mask="url(#d)" transform="matrix(1 0 0 -1 0 225)"/>
        <path fill="#FFE690" d="M59 .87v25.89L98.045 46.2l24.235-13.99z" mask="url(#d)"/>
        <path fill="#FECB20" d="M118.13 33.64L92.14 50.025l9.575 40.962 15.047 8.193z" mask="url(#d)" opacity=".2"/>
        <g fill="#000" mask="url(#d)" transform="rotate(90 58.5 67.565)">
            <use filter="url(#e)" xlink:href="#f"/>
        </g>
    </g>
</svg>
